<?xml version="1.0" encoding="utf-8"?>
<!-- Generator: Adobe Illustrator 25.2.1, SVG Export Plug-In . SVG Version: 6.00 Build 0)  -->
<!DOCTYPE svg PUBLIC "-//W3C//DTD SVG 1.1//EN" "http://www.w3.org/Graphics/SVG/1.1/DTD/svg11.dtd" [
	<!ENTITY ns_extend "http://ns.adobe.com/Extensibility/1.0/">
	<!ENTITY ns_ai "http://ns.adobe.com/AdobeIllustrator/10.0/">
	<!ENTITY ns_graphs "http://ns.adobe.com/Graphs/1.0/">
	<!ENTITY ns_vars "http://ns.adobe.com/Variables/1.0/">
	<!ENTITY ns_imrep "http://ns.adobe.com/ImageReplacement/1.0/">
	<!ENTITY ns_sfw "http://ns.adobe.com/SaveForWeb/1.0/">
	<!ENTITY ns_custom "http://ns.adobe.com/GenericCustomNamespace/1.0/">
	<!ENTITY ns_adobe_xpath "http://ns.adobe.com/XPath/1.0/">
]>
<svg version="1.1" id="Layer_1" xmlns:x="&ns_extend;" xmlns:i="&ns_ai;" xmlns:graph="&ns_graphs;"
	 xmlns="http://www.w3.org/2000/svg" xmlns:xlink="http://www.w3.org/1999/xlink" x="0px" y="0px" width="612px" height="274.5px"
	 viewBox="0 0 612 274.5" style="enable-background:new 0 0 612 274.5;" xml:space="preserve">
<style type="text/css">
	.st0{fill:#174376;}
	.st1{fill:#FFFFFF;}
	.st2{fill:#FFCD05;}
</style>
<metadata>
	<sfw  xmlns="&ns_sfw;">
		<slices></slices>
		<sliceSourceBounds  bottomLeftOrigin="true" height="243.9" width="579.2" x="16.5" y="15.6"></sliceSourceBounds>
	</sfw>
</metadata>
<path class="st0" d="M299,57h-2.7v13.8c0,3.9-1.4,6.4-4.4,8c-1.5,0.8-3.3,1.2-5,1.2c-5.3,0-9.1-3.5-9.1-8.2V57H275v-1.3h8.6V57h-2.7
	v13.7c0,4.4,2.6,7.2,6.6,7.2c4.1,0,6.9-2.9,6.9-7.3V57h-2.7v-1.3h7.3V57z"/>
<polygon class="st0" points="326.6,80 325.5,80 311.5,60.8 311.5,78.2 314.3,78.2 314.3,79.6 307,79.6 307,78.2 309.7,78.2 
	309.7,58.4 308.8,57 306.2,57 306.2,55.7 311.5,55.7 324.8,73.8 324.8,57 322,57 322,55.7 329.3,55.7 329.3,57 326.6,57 "/>
<polygon class="st0" points="345.8,79.6 337.2,79.6 337.2,78.2 339.9,78.2 339.9,57 337.2,57 337.2,55.7 345.8,55.7 345.8,57 
	343.1,57 343.1,78.2 345.8,78.2 "/>
<polygon class="st0" points="364.7,80.2 363.4,80.2 354.3,57 352.2,57 352.2,55.7 361.1,55.7 361.1,57 357.7,57 364.8,74.8 
	371.7,57 369.3,57 369.3,55.7 375.5,55.7 375.5,57 373.7,57 "/>
<polygon class="st0" points="398.4,79.6 381.9,79.6 381.9,78.2 384.6,78.2 384.6,57 381.9,57 381.9,55.7 396.3,55.7 396.3,54.6 
	398,54.6 398,60.4 396.4,60.4 396.4,57.3 387.8,57.3 387.8,66.6 394.6,66.6 394.6,63.9 396.3,63.8 396.3,71 394.6,71 394.6,68.2 
	387.8,68.2 387.8,77.9 396.7,77.9 396.7,74.8 398.4,74.8 "/>
<path class="st0" d="M412.5,67.2h3.5c2.8,0,4.7-2,4.7-5c0-3.1-1.7-4.9-4.8-4.9h-3.4L412.5,67.2L412.5,67.2z M427.5,79.6h-3.1
	c-2.1,0-2.5-0.2-3.7-2.1l-5.4-8.6h-2.8v9.4h2.7v1.3h-8.6v-1.3h2.7V57h-2.7v-1.3h10.1c3.5,0,5.5,1,6.6,3.2c0.5,1,0.7,2.1,0.7,3.2
	c0,3.5-2,5.8-5.4,6.3l5.2,8.1c0.9,1.3,1.5,1.8,2.4,1.8h1.4V79.6z"/>
<path class="st0" d="M436.3,79.9h-1.7v-6.5h1.7v2.9c2.2,1.5,3.2,1.8,4.8,1.8c2.9,0,4.9-1.5,4.9-3.8c0-2.1-1.4-3.6-5.3-5.6
	c-4.6-2.4-6.1-4.2-6.1-7.2c0-3.6,3-6.3,7.1-6.3c1.8,0,3.1,0.3,4.3,1v-1.3h1.7v6.2h-1.7v-2.6c-1.9-1.2-2.8-1.6-4.2-1.6
	c-2.5,0-4.1,1.5-4.1,3.7c0,1.8,1,2.9,5.6,5.5s5.8,4.2,5.8,7.2c0,3.8-3.1,6.7-7.2,6.7c-2.3,0-3.8-0.5-5.6-1.6L436.3,79.9L436.3,79.9z
	"/>
<polygon class="st0" points="466.5,79.6 457.8,79.6 457.8,78.2 460.6,78.2 460.6,57 457.8,57 457.8,55.7 466.5,55.7 466.5,57 
	463.8,57 463.8,78.2 466.5,78.2 "/>
<path class="st0" d="M480.9,77.8h4.4c5,0,8.7-4.4,8.7-10.2c0-5.6-3.8-10.1-8.6-10.1h-4.4V77.8z M474.9,79.6v-1.3h2.7V57h-2.7v-1.3
	h10.7c6.5,0,11.9,5.4,11.9,11.9c0,6.7-5.2,12-11.9,12L474.9,79.6L474.9,79.6z"/>
<path class="st0" d="M518.5,70l-3.9-10.2L510.5,70H518.5z M527,79.6h-8.3v-1.3h2.9l-2.5-6.5l-9.3,0l-2.6,6.5h3v1.4h-6.9v-1.4h1.9
	l9.4-23.3h1.3l9.1,23.3h2.1L527,79.6L527,79.6z"/>
<path class="st0" d="M540,77.8h4.3c5,0,8.7-4.4,8.7-10.2c0-5.6-3.8-10.1-8.6-10.1H540V77.8z M534,79.6v-1.3h2.7V57H534v-1.3h10.7
	c6.5,0,11.8,5.4,11.8,11.9c0,6.7-5.2,12-11.9,12L534,79.6L534,79.6z"/>
<path class="st0" d="M280.8,175.7h4.1c3,0,4.9-1.8,4.9-4.8c0-3-2.1-5.2-4.9-5.2h-4.1V175.7z M280.8,164.1h3.7c2.4,0,4-1.9,4-4.6
	c0-2.5-1.6-4.4-3.7-4.4h-4L280.8,164.1L280.8,164.1z M274.9,177.4V176h2.7v-21.2h-2.7v-1.3h11c3.3,0,6,2.6,6,5.9
	c0,2.7-2.4,5.1-5.3,5.4c1.5,0.2,2,0.3,2.9,0.8c2.2,1.1,3.5,3.1,3.5,5.6c0,3.6-2.8,6.2-6.5,6.2L274.9,177.4L274.9,177.4z"/>
<path class="st0" d="M311.8,165.4c0,6.1,3.4,10.6,8.1,10.6c4.6,0,8-4.5,8-10.6s-3.4-10.5-8-10.5
	C315.2,154.9,311.8,159.2,311.8,165.4 M308.2,165.4c0-6.8,5.3-12.4,11.7-12.4c6.3,0,11.6,5.7,11.6,12.4c0,6.8-5.3,12.4-11.6,12.4
	C313.6,177.8,308.2,172.2,308.2,165.4"/>
<polygon class="st0" points="363.3,177.4 346.8,177.4 346.8,176 349.5,176 349.5,154.8 346.8,154.8 346.8,153.4 355.4,153.4 
	355.4,154.8 352.7,154.8 352.7,175.7 361.6,175.7 361.6,172.5 363.3,172.5 "/>
<polygon class="st0" points="385.6,177.4 377,177.4 377,176 379.7,176 379.7,154.8 377,154.8 377,153.4 385.6,153.4 385.6,154.8 
	382.9,154.8 382.9,176 385.6,176 "/>
<polygon class="st0" points="411.8,178 410.6,178 401.4,154.8 399.3,154.8 399.3,153.4 408.3,153.4 408.3,154.8 404.9,154.8 
	411.9,172.6 418.9,154.8 416.5,154.8 416.5,153.4 422.7,153.4 422.7,154.8 420.9,154.8 "/>
<polygon class="st0" points="445,177.4 436.4,177.4 436.4,176 439.1,176 439.1,154.8 436.4,154.8 436.4,153.4 445,153.4 445,154.8 
	442.3,154.8 442.3,176 445,176 "/>
<path class="st0" d="M473.9,167.8l-3.9-10.2l-4.1,10.2H473.9z M482.4,177.4h-8.3V176h2.9l-2.5-6.5l-9.3,0l-2.6,6.5h3v1.4h-6.9V176
	h1.9l9.4-23.3h1.3l9.1,23.3h2.1L482.4,177.4L482.4,177.4z"/>
<polygon class="st0" points="516.6,177.8 515.4,177.8 501.5,158.6 501.5,176 504.3,176 504.3,177.4 497,177.4 497,176 499.7,176 
	499.7,156.2 498.7,154.8 496.2,154.8 496.2,153.4 501.5,153.4 514.7,171.6 514.7,154.8 512,154.8 512,153.4 519.3,153.4 
	519.3,154.8 516.6,154.8 "/>
<path class="st0" d="M547.6,167.8l-3.9-10.2l-4.1,10.2H547.6z M556.1,177.4h-8.3V176h2.9l-2.5-6.5l-9.3,0l-2.7,6.5h3v1.4h-6.9V176
	h1.9l9.4-23.3h1.3L554,176h2.1L556.1,177.4L556.1,177.4z"/>
<rect x="235.4" y="55.6" class="st0" width="1.8" height="161.7"/>
<rect x="593.9" y="55.6" class="st0" width="1.8" height="161.7"/>
<path class="st0" d="M306.2,133.5c-4.8,1.8-7.8,2.4-12.1,2.4c-11.9,0-20.3-8-20.3-19.2c0-11.1,8.5-19.4,19.8-19.4
	c3.7,0,6.2,0.5,9.5,1.9v-2.4h3.1v10.1h-3.1v-3.6c-3.2-2.3-5-2.9-8-2.9c-7.8,0-13.3,6.5-13.3,15.9c0,9.1,6,16.2,13.8,16.2
	c2.8,0,4.9-0.6,7.5-2.3V126h3.2L306.2,133.5L306.2,133.5z"/>
<path class="st0" d="M333.8,120.2l-5.4-14.1l-5.7,14.1H333.8z M348.4,135.1h-13.8v-2.4h4l-3.5-9.1h-13.7l-3.7,9.1h4.5v2.4h-11.7
	v-2.4h3.5l14.5-36h3.4l14,36h2.4V135.1z"/>
<polygon class="st0" points="372.1,135.1 353.9,135.1 353.9,132.8 359.4,132.8 359.4,101.2 349.6,101.2 349.6,105.9 346.5,105.9 
	346.5,96.3 349.6,96.3 349.6,97.9 376.4,97.9 376.4,96.3 379.5,96.3 379.5,105.9 376.4,105.9 376.4,101.2 366.7,101.2 366.7,132.8 
	372.1,132.8 "/>
<path class="st0" d="M399.7,96.4h-3.9l6.7-9.1h6.2L399.7,96.4z M402.5,132.6c5.7,0,10.7-7.6,10.7-16.1c0-8.5-5-16.1-10.7-16.1
	c-5.6,0-10.6,7.6-10.6,16.1C391.8,125.1,396.8,132.6,402.5,132.6 M402.5,135.9c-10.4,0-18.6-8.6-18.6-19.3s8.2-19.3,18.6-19.3
	s18.6,8.5,18.6,19.3S412.8,135.9,402.5,135.9"/>
<polygon class="st0" points="454.4,135.1 427.8,135.1 427.8,132.8 432,132.8 432,100.3 427.8,100.3 427.8,97.9 443.5,97.9 
	443.5,100.3 439.3,100.3 439.3,131.8 451.3,131.8 451.3,127.6 454.4,127.6 "/>
<polygon class="st0" points="474.8,135.1 459,135.1 459,132.8 463.3,132.8 463.3,100.3 459,100.3 459,97.9 474.8,97.9 474.8,100.3 
	470.6,100.3 470.6,132.8 474.8,132.8 "/>
<path class="st0" d="M513.8,133.5c-4.8,1.8-7.8,2.4-12.1,2.4c-11.9,0-20.3-8-20.3-19.2c0-11.1,8.5-19.4,19.8-19.4
	c3.7,0,6.2,0.5,9.5,1.9v-2.4h3.1v10.1h-3.1v-3.6c-3.2-2.3-5-2.9-8-2.9c-7.8,0-13.3,6.5-13.3,15.9c0,9.1,6,16.2,13.8,16.2
	c2.8,0,4.9-0.6,7.5-2.3V126h3.2L513.8,133.5L513.8,133.5z"/>
<path class="st0" d="M541.4,120.2l-5.3-14.1l-5.7,14.1H541.4z M556,135.1h-13.8v-2.4h4l-3.5-9.1H529l-3.7,9.1h4.5v2.4h-11.7v-2.4
	h3.5l14.5-36h3.4l14,36h2.4L556,135.1L556,135.1z"/>
<path class="st0" d="M320.2,217.8c-5.6,0-9-3.2-9-8c0-4.6,3.6-7.8,9-7.8c2.5,0,4,0.6,5.4,1.4l-1.8,2.9c-0.7-0.5-1.7-1.2-3.5-1.2
	c-2.7,0-5,1.7-5,4.6c0,3,2.4,5.1,5.5,5.1c1.9,0,2.8-0.6,3.6-0.9l1.4,2.9C323.9,217.5,322.3,217.8,320.2,217.8"/>
<path class="st0" d="M340.1,204.8c-2.6,0-5,2.3-5,5s2.3,5,5,5c2.6,0,4.9-2.3,4.9-5C345,207.1,342.7,204.8,340.1,204.8 M340.1,217.8
	c-5.5,0-9.1-3.2-9.1-7.9c0-4.8,3.5-7.9,9.1-7.9s9.1,3.1,9.1,7.9C349.2,214.6,345.6,217.8,340.1,217.8"/>
<path class="st0" d="M364.5,217.8c-5.6,0-9-3.2-9-8c0-4.6,3.6-7.8,9-7.8c2.5,0,4,0.6,5.4,1.4l-1.8,2.9c-0.7-0.5-1.7-1.2-3.5-1.2
	c-2.7,0-5,1.7-5,4.6c0,3,2.4,5.1,5.5,5.1c1.9,0,2.8-0.6,3.6-0.9l1.4,2.9C368.2,217.5,366.6,217.8,364.5,217.8"/>
<polygon class="st0" points="388.7,217.4 388.7,211.1 381.1,211.1 381.1,217.4 377.2,217.4 377.2,202.2 381.1,202.2 381.1,208.1 
	388.7,208.1 388.7,202.2 392.6,202.2 392.6,217.4 "/>
<path class="st0" d="M407.3,206.4l-1.6,4.9h3.1L407.3,206.4z M410.9,217.4l-1.2-3.4h-4.9l-1.3,3.4h-4.2l6.1-15.2h3.5l6.1,15.2H410.9
	z"/>
<path class="st0" d="M426.9,211.1h-1.6v3.8h1.6c1.7,0,2.6-0.6,2.6-1.9C429.5,211.6,428.4,211.1,426.9,211.1 M427.2,204.9h-1.9v3.5
	h1.8c1.1,0,2-0.3,2-1.7C429,205.1,428.1,204.9,427.2,204.9 M428,217.4h-6.6v-15.2h6.9c2.4,0,5,1.1,5,3.9c0,1.5-0.7,2.9-2.2,3.4
	c1.7,0.5,2.6,1.7,2.6,3.8C433.7,216.1,431.7,217.4,428,217.4"/>
<path class="st0" d="M446.8,206.4l-1.6,4.9h3.1L446.8,206.4z M450.4,217.4l-1.2-3.4h-4.9l-1.3,3.4h-4.2l6.1-15.2h3.5l6.1,15.2H450.4
	z"/>
<polygon class="st0" points="475.2,217.4 475.2,208.6 470.8,217.5 469.1,217.5 464.9,208.8 464.9,217.4 461.5,217.4 461.5,202.2 
	465.5,202.2 470.1,212.4 474.9,202.2 478.9,202.2 478.9,217.4 "/>
<path class="st0" d="M493.2,211.1h-1.6v3.8h1.6c1.7,0,2.6-0.6,2.6-1.9C495.9,211.6,494.7,211.1,493.2,211.1 M493.6,204.9h-1.9v3.5
	h1.8c1.1,0,2-0.3,2-1.7C495.4,205.1,494.5,204.9,493.6,204.9 M494.3,217.4h-6.6v-15.2h6.9c2.4,0,5,1.1,5,3.9c0,1.5-0.7,2.9-2.2,3.4
	c1.7,0.5,2.6,1.7,2.6,3.8C500,216.1,498,217.4,494.3,217.4"/>
<path class="st0" d="M513.1,206.4l-1.6,4.9h3.1L513.1,206.4z M516.7,217.4l-1.2-3.4h-4.9l-1.3,3.4h-4.2l6.1-15.2h3.5l6.1,15.2H516.7
	z"/>
<path class="st1" d="M152.3,65.2C139.8,48.3,123.8,39,107.3,39s-32.4,9.3-44.9,26.2c-14,18.9-21.7,44.4-21.7,71.8
	s7.7,52.9,21.7,71.8c12.5,16.9,28.5,26.1,44.9,26.1s32.4-9.3,44.9-26.1c14-18.9,21.7-44.4,21.7-71.8
	C174,109.6,166.3,84.1,152.3,65.2"/>
<path class="st2" d="M152.6,209.2c-12.7,17.1-28.9,26.5-45.7,26.5s-33-9.4-45.7-26.5c-14.1-19.1-21.9-44.7-21.9-72.3
	c0-27.6,7.8-53.2,21.9-72.3C74,47.5,90.2,38.1,107,38.1s33,9.4,45.7,26.5c14.1,19.1,21.9,44.7,21.9,72.3
	C174.5,164.5,166.7,190.1,152.6,209.2 M141.4,27.3c-10.8-6.2-22.2-9.3-34.1-9.3s-23.3,3.1-34.1,9.3c-10.5,6-19.8,14.5-27.9,25.4
	c-8.1,10.9-14.4,23.7-18.9,37.8c-4.6,14.7-6.9,30.3-6.9,46.4s2.3,31.7,6.9,46.4c4.4,14.2,10.8,26.9,18.9,37.8
	c8.1,10.9,17.5,19.5,27.9,25.4c10.8,6.2,22.2,9.3,34,9.3c11.8,0,23.3-3.1,34.1-9.3c10.4-6,19.9-14.5,27.9-25.4
	c8.1-10.9,14.4-23.7,18.9-37.8c4.6-14.7,6.9-30.3,6.9-46.4s-2.3-31.7-6.9-46.4c-4.4-14.2-10.8-26.9-18.9-37.8
	C161.2,41.8,151.8,33.2,141.4,27.3"/>
<path class="st0" d="M107,39.9c-16.2,0-31.9,9.2-44.2,25.8c-13.9,18.7-21.5,44-21.5,71.2c0,27.2,7.7,52.5,21.5,71.2
	c12.3,16.6,28,25.8,44.2,25.8c16.2,0,31.9-9.2,44.2-25.8c13.9-18.7,21.5-44,21.5-71.2s-7.6-52.5-21.5-71.2
	C138.9,49,123.2,39.9,107,39.9 M107,235.7c-16.8,0-33-9.4-45.7-26.5c-14.1-19.1-21.9-44.7-21.9-72.3s7.8-53.2,21.9-72.3
	C74,47.5,90.2,38.1,107,38.1s33,9.4,45.6,26.5c14.1,19,21.9,44.7,21.9,72.3s-7.8,53.2-21.9,72.3C140,226.3,123.8,235.7,107,235.7"/>
<path class="st0" d="M33.9,167c2.7-0.6,4.3,0.6,5,3.2c0.6,2.6-0.3,4.5-3,5.1l-6.1,1.5l-0.5-2.2l6.1-1.5c1.1-0.3,2.1-0.8,1.7-2.5
	c-0.4-1.5-1.2-1.9-2.6-1.5l-6.1,1.5l-0.5-2.2L33.9,167z"/>
<polygon class="st0" points="27.1,165.5 26.8,163.3 32.8,158.1 32.8,158 26.1,159.1 25.8,157 35.8,155.5 36.2,157.7 30.1,162.9 
	30.1,162.9 36.8,161.9 37.1,163.9 "/>
<rect x="25.4" y="151.4" transform="matrix(0.9947 -0.1024 0.1024 0.9947 -15.4606 3.919)" class="st0" width="10.1" height="2.2"/>
<polygon class="st0" points="34.9,143.9 35,146.4 25.1,150.2 25,147.9 31.9,145.3 31.9,145.3 24.7,143.4 24.6,141.1 "/>
<polygon class="st0" points="24.6,139.2 24.6,131.6 26.5,131.6 26.5,137 28.6,137 28.7,132.1 30.4,132.1 30.4,137 32.8,137.1 
	32.9,131.6 34.8,131.6 34.7,139.3 "/>
<path class="st0" d="M29.5,127.1l0.2-2.4c0.1-1-0.3-1.6-1.3-1.6c-1-0.1-1.4,0.4-1.5,1.4l-0.2,2.4L29.5,127.1z M24.7,129l0.4-5.4
	c0.1-1.8,1.5-2.9,3-2.7c1.2,0.1,2,0.6,2.4,1.8h0c0.4-1.1,1.4-1.3,2.5-1.3c0.6,0,1.8,0.1,2.4-0.2l-0.2,2.2c-0.7,0.2-1.6,0.1-2.4,0.2
	c-1.1,0.1-1.6,0.4-1.7,1.6l-0.2,2.2l3.9,0.3l-0.2,2.2L24.7,129z"/>
<path class="st0" d="M32.6,117.2c1.3,0.2,2-0.8,2.2-1.9c0.1-0.8,0.1-2-1-2.1c-1.1-0.2-1.5,1.3-2.1,2.7c-0.6,1.4-1.4,2.8-3.3,2.6
	c-2-0.3-2.7-2.4-2.5-4.2c0.3-2.1,1.5-3.9,3.8-3.5l-0.3,2.1c-1.2-0.1-1.6,0.7-1.8,1.8c-0.1,0.7,0.1,1.6,0.9,1.7
	c0.8,0.1,0.9-0.3,2-2.8c0.3-0.7,1.1-2.9,3.4-2.5c1.8,0.3,3,1.9,2.6,4.6c-0.3,2.2-1.7,4.1-4.2,3.7L32.6,117.2z"/>
<rect x="31.4" y="102.6" transform="matrix(0.1958 -0.9806 0.9806 0.1958 -79.4354 118.4565)" class="st0" width="2.2" height="10.1"/>
<path class="st0" d="M36.8,102.6l0.5-1.9c0.3-1.2-0.1-2.6-2.3-3.2c-2-0.5-3.4-0.2-4,2l-0.4,1.5L36.8,102.6z M28.3,102.7l1.1-4.2
	c0.7-2.5,2.8-4,6-3.2C38.2,96,40,98,39.2,101l-1.1,4.2L28.3,102.7z"/>
<path class="st0" d="M37.9,91.6l0.8-2.5h-3.9l0,0L37.9,91.6z M32.1,89.4l0.8-2.2l10.8-0.3l-0.8,2.2l-2.4,0l-1.2,3.6l1.9,1.5
	l-0.7,2.1L32.1,89.4z"/>
<path class="st0" d="M43.3,83.1l0.8-1.8c0.5-1.2,0.3-2.6-1.8-3.5C40.5,76.9,39,77,38.1,79l-0.7,1.4L43.3,83.1z M34.9,81.7l1.8-4
	c1.1-2.4,3.4-3.5,6.4-2.2c2.7,1.2,4.1,3.5,2.8,6.3l-1.8,4L34.9,81.7z"/>
<path class="st0" d="M48.4,63.1c-0.9-0.4-2.1,0-2.7,1c-1,1.7,0,3.2,1.5,4.2c1.4,0.9,3.3,1.1,4.3-0.6c0.7-1.2,0.3-2.3-0.7-3.2
	l1.1-1.8c2,1.5,2.5,3.8,1.2,6c-1.7,2.7-4.6,3-7.1,1.5c-2.6-1.6-3.6-4.4-1.9-7c1.2-1.9,3.3-2.8,5.4-1.8L48.4,63.1z"/>
<path class="st0" d="M54.6,59.2l1.6-2.1l-3.7-1.2l0,0L54.6,59.2z M49.8,55.2l1.4-1.8l10.3,3.2l-1.4,1.8l-2.2-0.8l-2.3,3l1.3,2
	l-1.4,1.8L49.8,55.2z"/>
<polygon class="st0" points="56.8,49.6 54.8,51.8 53.4,50.6 59,44.5 60.4,45.7 58.3,48 64.4,53.6 62.9,55.2 "/>
<path class="st0" d="M69.3,46.6c1.5-1.3,1-3.1-0.1-4.4c-1.2-1.3-2.8-2.2-4.3-0.9c-1.5,1.3-1,3.1,0.2,4.4
	C66.2,47.1,67.8,47.9,69.3,46.6 M63.5,39.2l-1.1,0.9l-0.3-2.4l1.7-1.4L63.5,39.2z M63.7,40c2.4-2,5.3-1.5,7.3,0.8
	c1.9,2.2,2,5.2-0.4,7.2c-2.4,2-5.3,1.5-7.2-0.8C61.4,45,61.3,42,63.7,40"/>
<polygon class="st0" points="69.6,35.6 71.5,34.4 75.9,41.3 80.1,38.7 81.1,40.2 75.1,44.1 "/>
<rect x="79.9" y="29.6" transform="matrix(0.8923 -0.4515 0.4515 0.8923 -6.9317 40.3133)" class="st0" width="2.2" height="10.1"/>
<path class="st0" d="M89.9,29.2c-0.5-0.9-1.6-1.3-2.7-0.9c-1.9,0.7-2,2.5-1.4,4.2c0.6,1.6,1.8,2.9,3.7,2.3c1.3-0.5,1.7-1.6,1.4-2.9
	l2-0.7c0.6,2.4-0.5,4.6-2.8,5.4c-2.9,1-5.5-0.5-6.4-3.3c-1-2.8-0.1-5.6,2.9-6.7c2.1-0.8,4.3-0.1,5.3,2L89.9,29.2z"/>
<path class="st0" d="M97.4,30.3l2.6-0.4l-1.8-3.5h0L97.4,30.3z M96.6,24.2l2.2-0.4l5.3,9.4l-2.3,0.3l-1.1-2.1L97.1,32l-0.4,2.3
	l-2.2,0.3L96.6,24.2z"/>
<path class="st0" d="M112.6,27.6l2.2,0.3c0.8,0.1,1.4-0.2,1.5-1c0.1-1-0.6-1.2-1.4-1.4l-2.1-0.3L112.6,27.6z M112,31.9l2.4,0.3
	c0.9,0.1,1.7-0.1,1.8-1.1c0.1-1-0.5-1.5-1.4-1.6l-2.4-0.3L112,31.9z M110.9,23.3l4.7,0.6c1.9,0.2,3.1,1,2.9,2.9
	c-0.1,1-0.7,1.6-1.6,1.9c1.2,0.5,1.7,1.5,1.5,2.8c-0.3,2-2.1,2.7-3.9,2.4l-4.9-0.7L110.9,23.3z"/>
<path class="st0" d="M123.9,34.6c1.9,0.6,3.2-0.7,3.7-2.3c0.6-1.7,0.4-3.5-1.5-4.2c-1.9-0.6-3.2,0.7-3.7,2.4
	C121.8,32.1,122,34,123.9,34.6 M126.7,26.3c3,1,4,3.8,3,6.7c-0.9,2.8-3.4,4.4-6.4,3.4s-4-3.8-3-6.6
	C121.2,26.9,123.7,25.3,126.7,26.3"/>
<polygon class="st0" points="133.9,29.4 135.8,30.5 131.9,37.7 136.3,40.1 135.4,41.7 129.1,38.3 "/>
<rect x="134.9" y="37.7" transform="matrix(0.5564 -0.8309 0.8309 0.5564 29.8292 133.5281)" class="st0" width="10.1" height="2.2"/>
<polygon class="st0" points="143.4,47.8 141.5,46.2 145.4,36.3 147.2,37.7 144.4,44.7 144.4,44.7 150.7,40.6 152.5,42.1 "/>
<rect x="146" y="46.8" transform="matrix(0.7007 -0.7134 0.7134 0.7007 11.0421 122.0635)" class="st0" width="10.1" height="2.2"/>
<path class="st0" d="M154.4,53.1l1.7,2l2-3.4l0,0L154.4,53.1z M159.3,49.2l1.5,1.7l-5.2,9.5l-1.5-1.8l1.2-2l-2.5-2.9l-2.2,0.9
	l-1.5-1.7L159.3,49.2z"/>
<polygon class="st0" points="164.4,55.5 165.7,57.3 162.5,64.6 162.5,64.7 168.1,60.8 169.3,62.5 160.9,68.3 159.7,66.4 162.9,59.1 
	162.9,59.1 157.3,62.9 156.1,61.2 "/>
<path class="st0" d="M166.6,70.4l1.3,2.3l2.6-2.9l0,0L166.6,70.4z M172.2,67.6l1.1,2l-7,8.2l-1.1-2l1.6-1.8l-1.8-3.3l-2.4,0.4
	l-1.1-2L172.2,67.6z"/>
<path class="st0" d="M175.3,84.6l-0.8-1.9l2-0.8c1.1-0.5,2.4-0.1,3,0.9l-0.9,0.4c-0.5-0.6-1-0.6-1.7-0.3l0.4,0.9L175.3,84.6z
	 M174.1,81.8l-0.8-1.9l2-0.8c1.1-0.5,2.4-0.1,3,0.9l-0.9,0.4c-0.5-0.6-1-0.6-1.7-0.3l0.4,0.9L174.1,81.8z"/>
<path class="st0" d="M174.5,88.9c-1.3,0.4-1.4,1.6-1.1,2.7c0.2,0.7,0.9,1.8,1.8,1.4c1-0.3,0.7-1.8,0.6-3.4c-0.1-1.6-0.1-3.2,1.8-3.8
	c2-0.7,3.5,0.9,4.1,2.6c0.7,2,0.4,4.1-1.8,4.9l-0.7-2c1.1-0.5,1.1-1.4,0.8-2.4c-0.2-0.7-0.8-1.3-1.6-1.1c-0.7,0.2-0.7,0.7-0.5,3.3
	c0.1,0.8,0.4,3.1-1.8,3.8c-1.8,0.6-3.6-0.3-4.4-2.9c-0.7-2.1-0.4-4.5,2-5.2L174.5,88.9z"/>
<path class="st0" d="M178.2,98.9l0.7,2.5l3.3-2.2l0,0L178.2,98.9z M184.3,97.6l0.6,2.2L176,106l-0.6-2.2l2-1.3l-0.9-3.7l-2.4-0.2
	l-0.6-2.2L184.3,97.6z"/>
<polygon class="st0" points="186.2,105.2 186.6,107.4 180.6,112.8 180.6,112.8 187.3,111.6 187.7,113.6 177.7,115.4 177.3,113.2 
	183.2,107.9 183.2,107.9 176.6,109.1 176.2,107 "/>
<path class="st0" d="M184,123.5l0.1,1.7c0.1,1,0.4,1.9,1.7,1.8c1.3-0.1,1.4-1,1.4-2.1l-0.1-1.7L184,123.5z M188.6,120.9l0.4,4.6
	c0.2,2.5-1.3,3.6-3,3.7c-1.6,0.1-3.3-0.7-3.5-3.2l-0.2-2.3l-3.6,0.3l-0.2-2.2L188.6,120.9z"/>
<path class="st0" d="M183.1,132.4l0.1,2.6l3.7-1.4v0L183.1,132.4z M189.3,132.5l0,2.3l-10,4l-0.1-2.3l2.2-0.8l-0.1-3.8l-2.3-0.8
	l0-2.3L189.3,132.5z"/>
<path class="st0" d="M185.2,142.4l-0.1,2.2c0,0.8,0.3,1.4,1.1,1.4c1,0,1.2-0.7,1.2-1.5l0.1-2.1L185.2,142.4z M180.9,142.2l-0.1,2.4
	c0,0.9,0.2,1.7,1.2,1.7c1,0.1,1.5-0.6,1.5-1.5l0.1-2.4L180.9,142.2z M189.4,140.4l-0.2,4.8c-0.1,1.9-0.8,3.2-2.7,3.1
	c-1-0.1-1.7-0.6-2.1-1.5c-0.4,1.2-1.4,1.8-2.6,1.7c-2.1-0.1-2.9-1.9-2.8-3.7l0.2-4.9L189.4,140.4z"/>
<polygon class="st0" points="188.7,151.1 188.5,153.4 180.3,152.4 179.8,157.4 177.9,157.1 178.7,150 "/>
<path class="st0" d="M178.5,163.1c-0.4,2,1.2,3,2.9,3.3c1.7,0.3,3.6-0.1,3.9-2.1c0.4-2-1.2-3-2.9-3.3
	C180.7,160.7,178.9,161.2,178.5,163.1 M187.1,164.7c-0.6,3.1-3.2,4.5-6.1,3.9c-2.9-0.5-4.9-2.8-4.3-5.8c0.6-3.1,3.2-4.5,6.1-4
	C185.7,159.4,187.7,161.6,187.1,164.7"/>
<path class="st0" d="M185.5,171.5l-0.5,1.9l-2.1-0.5c-1.2-0.3-2-1.4-1.8-2.5l0.9,0.2c0.1,0.8,0.5,1.1,1.2,1.2l0.2-0.9L185.5,171.5z
	 M184.8,174.4l-0.5,1.9l-2.1-0.5c-1.2-0.3-2-1.4-1.8-2.5l0.9,0.2c0.1,0.8,0.5,1.1,1.2,1.3l0.2-0.9L184.8,174.4z"/>
<polygon class="st0" points="49.8,201.3 44.4,200.8 42.1,205.7 40.9,200.4 35.5,199.8 40.2,197 39.1,191.7 43.2,195.3 48,192.6 
	45.8,197.6 "/>
<polygon class="st0" points="163.7,201.2 169.2,200.7 171.4,205.7 172.6,200.4 178,199.7 173.3,197 174.4,191.6 170.4,195.3 
	165.6,192.5 167.8,197.6 "/>
<path class="st2" d="M159.8,111.8h4.3c-3.1-16.1-9.3-30.8-17.9-42.4c-11.1-15-25-23.2-39.2-23.2s-28,8.2-39.1,23.2
	C59.2,81.1,53,95.7,49.9,111.8h3.9l-0.2,3.2l-0.7,11l7.8-9.2l6.4,8l4.9-18.4h-3.1c2.9-10.1,7.3-19.3,12.8-26.8
	c7.8-10.5,16.8-16.3,25.3-16.3s17.6,5.8,25.3,16.3c5.5,7.5,9.9,16.6,12.8,26.7h-3l4.9,18.4l6.4-8l7.8,9.2l-0.9-12.8L159.8,111.8z"/>
<path class="st0" d="M160.1,123.3l-5.3-6.3l-1.4-1.6L152,117l-4.7,5.8l-4.1-15.6h1.2c0.5,1.8,0.9,3.6,1.4,5.5h13.6L160.1,123.3z
	 M133,79.2c-7.9-10.7-17.2-16.6-26-16.6s-18.1,5.9-26,16.6c-3.4,4.6-6.3,9.7-8.8,15.3c-2.2,5.1-4.1,10.7-5.4,16.5H51
	c1.5-7.4,3.7-14.5,6.4-21.1c3-7.3,6.8-13.9,11.1-19.8C79.4,55.2,93.1,47.1,107,47.1s27.5,8.1,38.4,22.9c4.4,5.9,8.1,12.6,11.1,19.8
	c2.8,6.6,4.9,13.7,6.4,21.1h-15.8c-1.4-5.8-3.2-11.3-5.4-16.5C139.3,88.9,136.4,83.7,133,79.2 M70.8,107.3l-4.2,15.6l-4.7-5.8
	l-1.3-1.7l-1.4,1.6l-5.3,6.3l0.7-10.6h13.6c0.4-1.8,0.8-3.6,1.3-5.4L70.8,107.3L70.8,107.3z M165.1,112.7
	c-3.1-16.6-9.3-31.7-18.3-43.8c-11.3-15.2-25.4-23.6-39.9-23.6s-28.6,8.4-39.9,23.6c-9,12.1-15.2,27.2-18.3,43.8h4l-1,15.9l8.8-10.4
	l6.9,8.6l5.7-21.2H70c2.8-9.5,7-18.1,12.3-25.3c7.6-10.3,16.3-15.9,24.6-15.9s17,5.7,24.6,15.9c5.3,7.2,9.5,15.8,12.3,25.3h-3
	l5.6,21.2l6.9-8.6l8.8,10.4l-1.1-15.8L165.1,112.7L165.1,112.7z"/>
<polygon class="st0" points="67.6,97.7 66.8,99.7 57.9,99.4 58.5,97.5 64.8,97.8 64.8,97.8 59.8,93.9 60.5,92.1 "/>
<polygon class="st0" points="61.1,90.8 63.8,85 65.2,85.6 63.3,89.7 65,90.5 66.7,86.7 68,87.3 66.3,91.1 68.2,92 70.1,87.8 
	71.6,88.5 68.8,94.3 "/>
<path class="st0" d="M69,83.4l1-1.8c0.4-0.7,0.3-1.3-0.4-1.7c-0.7-0.4-1.2-0.2-1.7,0.5l-1,1.8L69,83.4z M64.8,83.1l2.3-4
	c0.8-1.3,2.2-1.6,3.3-1c0.9,0.5,1.3,1.2,1.2,2.2l0,0c0.7-0.7,1.6-0.4,2.3-0.1c0.5,0.2,1.3,0.8,1.9,0.7l-0.9,1.6
	c-0.6-0.1-1.3-0.5-1.9-0.8c-0.8-0.3-1.4-0.2-1.8,0.6l-0.9,1.6l2.9,1.7l-0.9,1.6L64.8,83.1z"/>
<rect x="72.8" y="72.3" transform="matrix(0.5716 -0.8206 0.8206 0.5716 -31.2657 93.3348)" class="st0" width="1.9" height="8.5"/>
<polygon class="st0" points="74.7,70.9 73,72.9 71.8,71.9 76.2,66.5 77.5,67.5 75.8,69.4 81.2,73.9 80,75.3 "/>
<path class="st0" d="M82.1,68.1l1.6-1.5L80.7,65l0,0L82.1,68.1z M78.6,64.2l1.4-1.3l8.2,4l-1.4,1.3L85,67.2l-2.3,2.2l0.8,1.8
	l-1.4,1.3L78.6,64.2z"/>
<path class="st0" d="M88.2,63.3c0.6,0.9,1.6,0.8,2.4,0.3c0.6-0.4,1.3-1.1,0.8-1.8c-0.5-0.8-1.7-0.2-2.9,0.2
	c-1.2,0.4-2.6,0.7-3.5-0.6c-1-1.5-0.1-3.1,1.2-3.9c1.5-1,3.3-1.3,4.4,0.4l-1.5,1c-0.6-0.8-1.4-0.6-2.1-0.1c-0.5,0.3-0.9,0.9-0.5,1.5
	c0.4,0.5,0.8,0.4,2.8-0.3c0.6-0.2,2.4-1,3.5,0.7c0.9,1.3,0.5,3-1.4,4.3c-1.6,1.1-3.6,1.3-4.7-0.5L88.2,63.3z"/>
<rect x="96.9" y="52.4" transform="matrix(0.9494 -0.3142 0.3142 0.9494 -12.8645 33.6097)" class="st0" width="1.9" height="8.5"/>
<polygon class="st0" points="100.6,51.4 102.5,51.2 106.5,56.6 106.5,56.6 106,50.9 107.8,50.7 108.5,59.2 106.7,59.4 102.6,54 
	102.6,54 103.1,59.7 101.3,59.9 "/>
<path class="st0" d="M120.1,56.7c0.2-0.8-0.3-1.7-1.2-2.1c-1.6-0.6-2.7,0.5-3.2,1.9c-0.5,1.3-0.4,2.9,1.1,3.5c1.1,0.4,2-0.1,2.5-1.1
	l1.7,0.7c-0.9,1.9-2.8,2.7-4.8,1.9c-2.5-1-3.2-3.3-2.3-5.7c0.9-2.4,3.1-3.7,5.5-2.7c1.8,0.7,2.8,2.3,2.3,4.2L120.1,56.7z"/>
<path class="st0" d="M124.2,61.8l1.8,1.3l0.9-3.2l0,0L124.2,61.8z M127.4,57.6l1.6,1.1l-2.3,8.8l-1.6-1.1l0.6-1.9l-2.6-1.8l-1.6,1.2
	l-1.6-1.1L127.4,57.6z"/>
<path class="st0" d="M131.7,66l1.4,1.5c0.6,0.6,1.2,0.7,1.8,0.1c0.6-0.6,0.5-1.2-0.1-1.8l-1.4-1.4L131.7,66z M133.1,61.9l3.2,3.3
	c1.1,1.1,1,2.5,0.1,3.4c-0.7,0.7-1.5,0.9-2.5,0.6l0,0c0.5,0.8,0,1.6-0.5,2.3c-0.4,0.4-1.1,1.1-1.2,1.7l-1.3-1.3
	c0.2-0.5,0.8-1.1,1.2-1.7c0.5-0.7,0.6-1.2-0.1-1.9l-1.3-1.3l-2.4,2.4l-1.3-1.3L133.1,61.9z"/>
<rect x="132.6" y="71.3" transform="matrix(0.776 -0.6307 0.6307 0.776 -14.9063 102.5318)" class="st0" width="8.5" height="1.9"/>
<polygon class="st0" points="142.1,74.6 140.6,72.5 141.9,71.6 145.9,77.3 144.6,78.2 143.1,76.1 137.4,80.1 136.3,78.5 "/>
<path class="st0" d="M142.8,82.5l1.1,1.9l2.2-2.5l0,0L142.8,82.5z M147.5,80.1l0.9,1.7l-5.9,7l-1-1.7l1.3-1.5l-1.6-2.8l-2,0.4
	l-0.9-1.7L147.5,80.1z"/>
<polygon class="st0" points="149.6,87.4 148.5,85.1 149.9,84.4 152.9,90.8 151.4,91.5 150.4,89.1 144,92.1 143.2,90.4 "/>
<polygon class="st0" points="153.5,92.3 155.7,98.3 154.2,98.9 152.7,94.7 150.9,95.3 152.4,99.2 151,99.7 149.6,95.8 147.6,96.5 
	149.2,100.8 147.7,101.4 145.5,95.3 "/>
<polygon class="st0" points="76.6,231.3 79.3,232.8 78.1,240 78.1,240 83.4,235 86.2,236.5 81.3,245.4 79.5,244.4 82.9,238.1 
	82.9,238.1 77.3,243.2 75.8,242.3 77,234.9 77,234.9 73.6,241.1 71.7,240.1 "/>
<path class="st0" d="M93.1,242.3c0.2-1-0.5-2-1.6-2.4c-1.9-0.6-3.1,0.8-3.7,2.5c-0.5,1.6-0.3,3.5,1.6,4.1c1.3,0.4,2.3-0.3,2.9-1.5
	l2.1,0.6c-1,2.4-3.1,3.4-5.5,2.6c-3-0.9-4.1-3.7-3.2-6.5c0.9-2.9,3.3-4.6,6.3-3.6c2.1,0.7,3.5,2.5,3.1,4.8L93.1,242.3z"/>
<polygon class="st0" points="97.2,240 100.3,240.3 102.1,247.4 102.2,247.4 105,240.7 108.1,240.9 107.2,251 105.2,250.8 
	105.8,243.7 105.7,243.7 102.7,250.6 100.9,250.5 99.1,243.2 99.1,243.2 98.4,250.3 96.4,250.1 "/>
<polygon class="st0" points="109.6,240.7 111.8,240.4 112.8,248.6 117.7,248.1 117.9,249.9 110.8,250.7 "/>
<polygon class="st0" points="121.1,243.6 116.7,239.9 119.2,239.2 122,241.8 123,238.1 125.4,237.4 123.6,242.9 128.4,247.1 
	125.9,247.8 122.8,245 121.6,249 119.2,249.7 "/>
<polygon class="st0" points="135.7,243.7 133.4,244.8 126,237.2 128.1,236.1 133.2,241.5 133.2,241.5 132.2,234.1 134.2,233.1 "/>
<rect x="137.4" y="231.2" transform="matrix(0.8467 -0.5321 0.5321 0.8467 -104.4769 109.9186)" class="st0" width="2.2" height="10.1"/>
<path class="st0" d="M195.1,137c0,16.1-2.3,31.7-6.9,46.4c-4.4,14.2-10.8,26.9-18.9,37.8c-8.1,10.9-17.5,19.5-27.9,25.4
	c-10.8,6.2-22.2,9.3-34.1,9.3s-23.3-3.1-34.1-9.3c-10.5-6-19.8-14.5-27.9-25.4c-8.1-10.9-14.5-23.7-18.9-37.8
	c-4.6-14.7-6.9-30.3-6.9-46.4s2.3-31.7,6.9-46.4c4.4-14.2,10.8-26.9,18.9-37.8c8.1-10.9,17.5-19.5,27.9-25.4
	c10.8-6.2,22.2-9.3,34.1-9.3c11.8,0,23.3,3.1,34.1,9.3c10.4,6,19.8,14.5,27.9,25.4c8.1,10.9,14.4,23.7,18.9,37.8
	C192.8,105.2,195.1,120.8,195.1,137 M191,89.7c-4.5-14.5-11.1-27.5-19.3-38.7c-4.1-5.5-8.6-10.5-13.4-14.9
	c-4.9-4.4-10-8.2-15.4-11.3c-11.2-6.4-23.2-9.7-35.5-9.7S83,18.3,71.8,24.7c-5.4,3.1-10.6,6.9-15.4,11.3c-4.8,4.4-9.3,9.4-13.4,14.9
	c-8.3,11.2-14.8,24.2-19.3,38.7c-4.7,15-7.1,30.9-7.1,47.3s2.4,32.3,7.1,47.3c4.5,14.5,11,27.5,19.3,38.7
	c4.1,5.5,8.6,10.6,13.4,14.9c4.8,4.4,10,8.2,15.4,11.3c11.2,6.4,23.2,9.7,35.5,9.7s24.3-3.3,35.5-9.7c5.4-3.1,10.6-6.9,15.4-11.3
	c4.8-4.4,9.3-9.4,13.4-14.9c8.3-11.2,14.8-24.2,19.3-38.7c4.7-15,7.1-30.9,7.1-47.3C198.1,120.6,195.7,104.6,191,89.7"/>
<path class="st2" d="M103.3,87.7c-0.5,0.1-1,0.2-1.6,0.3l2.2,12.3c0,0,0,0,0,0c0.3-1.6,0.5-3.3,0.7-5.1L103.3,87.7z"/>
<path class="st2" d="M103.7,100.3l-4-11.8c-0.5,0.2-1,0.3-1.5,0.5l4,11.8C102.7,100.6,103.2,100.4,103.7,100.3"/>
<path class="st2" d="M101.7,101l-5.8-11c-0.5,0.2-0.9,0.5-1.4,0.7l5.8,11C100.8,101.5,101.2,101.2,101.7,101"/>
<path class="st2" d="M99.9,102l-7.6-9.9c-0.4,0.3-0.8,0.6-1.2,1l7.6,9.9C99,102.7,99.4,102.3,99.9,102"/>
<path class="st2" d="M98.2,103.3l-9.1-8.5c-0.4,0.4-0.7,0.8-1.1,1.2l5.9,5.5c1.3,0.7,2.7,1.3,4.2,2
	C98.2,103.4,98.2,103.4,98.2,103.3"/>
<path class="st2" d="M115.7,103.3l8-9.6c-0.4-0.3-0.8-0.7-1.2-1l-5.2,6.3C116.7,100.3,116.2,101.8,115.7,103.3L115.7,103.3z"/>
<path class="st2" d="M116.1,103.7c0.4,0.4,0.7,0.8,1,1.2l9.5-8.2c-0.3-0.4-0.7-0.8-1-1.2L116.1,103.7z"/>
<path class="st2" d="M118.3,106.7l10.7-6.4c-0.3-0.5-0.5-0.9-0.8-1.3l-10.7,6.4C117.8,105.8,118,106.3,118.3,106.7"/>
<path class="st2" d="M119.1,108.7l11.6-4.5c-0.2-0.5-0.4-1-0.6-1.5l-11.7,4.5C118.7,107.7,118.9,108.2,119.1,108.7"/>
<path class="st2" d="M131.7,108c-0.1-0.5-0.2-1-0.3-1.5l-12.2,2.7c0,0.1,0.1,0.2,0.1,0.3c1.3,0.2,2.6,0.4,3.9,0.5L131.7,108z"/>
<path class="st2" d="M108.2,130.7l0.8,7c0.5,0,1.1-0.1,1.6-0.2l-1.2-11l-0.6,2.2C108.6,129.3,108.4,130,108.2,130.7"/>
<path class="st2" d="M109.8,124.9l3.5,12c0.5-0.1,1-0.3,1.5-0.4l-3.5-12C110.8,124.7,110.3,124.8,109.8,124.9"/>
<path class="st2" d="M112,124.2l5.6,11.1c0.5-0.2,0.9-0.5,1.4-0.7l-5.6-11.2C112.9,123.8,112.5,124,112,124.2"/>
<path class="st2" d="M114,123.2l7.5,10c0.4-0.3,0.8-0.6,1.3-0.9l-7.5-10C114.8,122.6,114.4,122.9,114,123.2"/>
<path class="st2" d="M115.6,121.9l9.1,8.6c0.4-0.4,0.7-0.8,1.1-1.1l-7.2-6.8c-0.8-0.4-1.6-0.8-2.5-1.1
	C115.9,121.6,115.8,121.7,115.6,121.9"/>
<path class="st2" d="M91.4,132.4c0.4,0.3,0.8,0.6,1.3,0.9l4.3-5.8l1.1-4.2L91.4,132.4z"/>
<path class="st2" d="M89.5,130.7l9-8.7c-0.4-0.4-0.8-0.7-1.1-1.1l-9,8.7C88.7,129.9,89.1,130.3,89.5,130.7"/>
<path class="st2" d="M85.9,125.9l0.9,1.3l10.2-6.9c-0.3-0.4-0.6-0.8-0.9-1.3L85.9,125.9z"/>
<path class="st2" d="M83.7,122.1c0.2,0.5,0.4,1,0.6,1.4l11.4-5.1c-0.2-0.5-0.5-0.9-0.6-1.4L83.7,122.1z"/>
<path class="st2" d="M82.4,118.1c0.1,0.5,0.2,1,0.4,1.5l12.1-3.1c-0.1-0.2-0.1-0.4-0.2-0.7c-0.9-0.1-1.9-0.2-2.8-0.2L82.4,118.1z"/>
<path class="st2" d="M103.3,87.7c-0.5,0.1-1,0.2-1.6,0.3l2.2,12.3c0,0,0,0,0,0c0.3-1.6,0.5-3.3,0.7-5.1L103.3,87.7z"/>
<path class="st2" d="M103.7,100.3l-4-11.8c-0.5,0.2-1,0.3-1.5,0.5l4,11.8C102.7,100.6,103.2,100.4,103.7,100.3"/>
<path class="st2" d="M101.7,101l-5.8-11c-0.5,0.2-0.9,0.5-1.4,0.7l5.8,11C100.8,101.5,101.2,101.2,101.7,101"/>
<path class="st2" d="M99.9,102l-7.6-9.9c-0.4,0.3-0.8,0.6-1.2,1l7.6,9.9C99,102.7,99.4,102.3,99.9,102"/>
<path class="st2" d="M98.2,103.3l-9.1-8.5c-0.4,0.4-0.7,0.8-1.1,1.2l5.9,5.5c1.3,0.7,2.7,1.3,4.2,2
	C98.2,103.4,98.2,103.4,98.2,103.3"/>
<path class="st2" d="M115.7,103.3l8-9.6c-0.4-0.3-0.8-0.7-1.2-1l-5.2,6.3C116.7,100.3,116.2,101.8,115.7,103.3L115.7,103.3z"/>
<path class="st2" d="M116.1,103.7c0.4,0.4,0.7,0.8,1,1.2l9.5-8.2c-0.3-0.4-0.7-0.8-1-1.2L116.1,103.7z"/>
<path class="st2" d="M118.3,106.7l10.7-6.4c-0.3-0.5-0.5-0.9-0.8-1.3l-10.7,6.4C117.8,105.8,118,106.3,118.3,106.7"/>
<path class="st2" d="M119.1,108.7l11.6-4.5c-0.2-0.5-0.4-1-0.6-1.5l-11.7,4.5C118.7,107.7,118.9,108.2,119.1,108.7"/>
<path class="st2" d="M131.7,108c-0.1-0.5-0.2-1-0.3-1.5l-12.2,2.7c0,0.1,0.1,0.2,0.1,0.3c1.3,0.2,2.6,0.4,3.9,0.5L131.7,108z"/>
<path class="st2" d="M108.2,130.7l0.8,7c0.5,0,1.1-0.1,1.6-0.2l-1.2-11l-0.6,2.2C108.6,129.3,108.4,130,108.2,130.7"/>
<path class="st2" d="M109.8,124.9l3.5,12c0.5-0.1,1-0.3,1.5-0.4l-3.5-12C110.8,124.7,110.3,124.8,109.8,124.9"/>
<path class="st2" d="M112,124.2l5.6,11.1c0.5-0.2,0.9-0.5,1.4-0.7l-5.6-11.2C112.9,123.8,112.5,124,112,124.2"/>
<path class="st2" d="M114,123.2l7.5,10c0.4-0.3,0.8-0.6,1.3-0.9l-7.5-10C114.8,122.6,114.4,122.9,114,123.2"/>
<path class="st2" d="M115.6,121.9l9.1,8.6c0.4-0.4,0.7-0.8,1.1-1.1l-7.2-6.8c-0.8-0.4-1.6-0.8-2.5-1.1
	C115.9,121.6,115.8,121.7,115.6,121.9"/>
<path class="st2" d="M91.4,132.4c0.4,0.3,0.8,0.6,1.3,0.9l4.3-5.8l1.1-4.2L91.4,132.4z"/>
<path class="st2" d="M89.5,130.7l9-8.7c-0.4-0.4-0.8-0.7-1.1-1.1l-9,8.7C88.7,129.9,89.1,130.3,89.5,130.7"/>
<path class="st2" d="M85.9,125.9l0.9,1.3l10.2-6.9c-0.3-0.4-0.6-0.8-0.9-1.3L85.9,125.9z"/>
<path class="st2" d="M83.7,122.1c0.2,0.5,0.4,1,0.6,1.4l11.4-5.1c-0.2-0.5-0.5-0.9-0.6-1.4L83.7,122.1z"/>
<path class="st2" d="M82.4,118.1c0.1,0.5,0.2,1,0.4,1.5l12.1-3.1c-0.1-0.2-0.1-0.4-0.2-0.7c-0.9-0.1-1.9-0.2-2.8-0.2L82.4,118.1z"/>
<path class="st2" d="M158.4,147.2c0.5-3-0.3-5.9-1.2-8.1c-0.2,0.6-0.5,1.3-0.8,2c-0.4,0.9-0.8,1.8-1.3,2.7c-1.1,2.2-2.1,4.1-2.1,6.7
	c0,2.1,0.7,3.8,1.4,5.4c0.1,0.2,0.2,0.5,0.3,0.7c0.4-1.2,1-2.3,1.5-3.4C157.2,151.1,158,149.4,158.4,147.2"/>
<path class="st0" d="M66,168.2c-0.3-0.3-0.5-0.6-0.7-0.5c-0.2,0.1-0.2,0.3,0,0.6c0.1,0.2,0.3,0.5,0.5,0.6c0.3,0.5,1.2,0.1,0.9-0.2
	C66.5,168.5,66.3,168.6,66,168.2"/>
<path class="st0" d="M64.8,165.8c0.1-0.2,0.4-0.2,0-1.3s-0.9-1.8-1-2.5c-0.3-2.4,0.3-4.1,0.3-4.9c0.1-0.9,0.9-1.3,1.5-2.1
	c0.6-0.8,0.7-1.9,2.3-3c0.4-0.2,1.5-0.6,2.2-0.8c0.7-0.3,1.9-0.6,3.7-0.6c1.4,0,0.8-0.7,0.5-0.6c-0.3,0.1-0.4,0.1-0.9,0.2
	s-1.7-0.5-2.9-0.1s-3.2,1-4.9,2.6c-1.7,1.5-3.1,4.7-3.1,7.6c0,2.9,1,4.5,1.2,5c0.3,0.5,0.1,0.8,0.4,1.5s1.1,0.5,0.8,0
	C64.8,166.3,64.7,166,64.8,165.8"/>
<path class="st0" d="M155.6,163.8c-0.1,0-0.3,0-0.5,0H155c-0.8,0-1.1-0.1-1-0.7c0.1-0.6,0.7-1,1.2-1s0.9,0.5,0.9,1.1
	C156,163.6,155.9,163.7,155.6,163.8 M153.1,150.4c0-2.6,0.9-4.5,2.1-6.7c0.4-0.9,0.9-1.7,1.3-2.7c0.3-0.7,0.5-1.4,0.8-2
	c0.9,2.2,1.7,5.2,1.2,8.1c-0.4,2.2-1.2,4-2.1,5.9c-0.5,1.1-1,2.2-1.5,3.4c-0.1-0.2-0.2-0.5-0.3-0.7
	C153.8,154.2,153.1,152.5,153.1,150.4 M146.4,165.7c-0.4,0.1-0.8,0.2-0.8-0.2c0-0.4,0.7-0.5,1.4-0.5
	C147.3,165,147.1,165.5,146.4,165.7 M142.2,167.6c-3.2,1.9-6,4.1-8.7,5.8c-1.9,1.3-0.9-1.9-2.4-0.7c-2.3,2-2.4,4.9-8.3,8.7
	c-3.6,2.2-7.6,3.3-11.1,3.1c-3-0.2-2.8-1.2-4-1.1c-1,0.1-1.7-0.3-2.3-0.8c-0.9-0.7-1.3-1.6-1.3-2.7c-0.1-3,3.1-5.3,6.2-5.8
	c2.6-0.4,1.7,1.2,2.6,1.1c1.3-0.2,1.2-1.5,4.2-2c1-0.2,1.1,0.8,2.2,0.5s3.2-1.6,4.5-1.8c1-0.2,2-0.5,3-0.8c1.3-0.4,2.6-0.8,4.1-1.3
	c1.2-0.4,2.4-0.9,3.6-1.3c3.8-1.3,6.8-2.3,8-2.4C143.6,166,143.5,166.8,142.2,167.6 M113.4,187.5c-0.1,1.2-1.8,1.2-2.8,1
	c-0.9-0.2-1.2-0.5-1.8-0.6s-0.7-0.7-0.1-0.6C112.4,187.9,113.5,186.7,113.4,187.5 M111.4,190.6c0-0.6,0.7-0.8,0.7,0.1
	c0,0.7,0.2,2.2,0.2,2.5c0,0.3-0.8,0.9-0.8,0.1C111.5,192.4,111.4,191.5,111.4,190.6 M108.2,191.5c0-0.4,0.4-0.7,0.6-0.8
	c0.2-0.1,0.4,0,0.4,0.4c0,0.6,0,1.4,0,1.9s-1.1,0.6-1.1-0.2C108.2,192.1,108.2,191.9,108.2,191.5 M113.3,195.6
	c0.9-0.5,1.1,0,1.1,0.2c0,0.8-2,1.8-5.1,1.8c-1.1,0-2.1-0.1-2.9-0.4c-0.4-0.1-0.5-0.2-0.5-0.5c0-0.3,0.5-0.1,0.7-0.1
	c0.7,0.1,1.6,0.1,2.6,0C111.1,196.5,112.5,196.1,113.3,195.6 M111.2,199.1c0-0.9,1.6-1.2,1.7-0.5c0,0.6,0.1,1.5,0.3,2.7
	c0,0.3,0.1,0.4-0.1,0.5c-0.5,0.1-0.9,0.3-1.5,0.3c-0.2,0-0.2-0.1-0.2-0.3C111.2,200.3,111.2,199.8,111.2,199.1 M114,204.4
	c0.5,1.1,0.3,1.5-0.3,1.6c-0.6,0.1-2.5,0.2-3.3,0.2c-0.7,0-1.2-0.3-1.2-1.1c0.1-0.8,0.9-1.4,2.1-1.7
	C112.6,203.2,113.8,204,114,204.4 M107.7,201.9c0-0.7,0.1-1.1,0.3-1.4c0.2-0.4,0.3-0.6,0.4-1s0.8-1.2,0.8-0.3c0,0.9,0,2,0,2.9
	c0,0.3-0.1,0.3-0.2,0.3c-0.4,0-0.8,0-1.2-0.1C107.8,202.2,107.7,202.2,107.7,201.9 M115.7,207.7c0.8-0.1,2.1,0.1,2,0.8
	c-0.1,0.7-0.3,1.1-1.1,1.4c0.1,0.2,0.5,0.9,0.7,1.4c0.1,0.3,0.1,0.5,0.1,0.8c0,0.2-0.2,0.4-0.3,0.4c-0.2,0-0.3-0.2-0.3-0.3
	c-0.1-1.1-0.8-2.1-1-2.1c-0.2,0-0.4,0-0.8,0.1c0.3,0.4,0.5,1.6,0.6,1.9c0,0.3,0,0.6-0.3,0.7c-0.2,0-0.3-0.1-0.3-0.4
	c-0.1-0.6-0.5-2-0.6-2c-0.2,0-2.3,0.1-2.4,0.1c0.1,0.3,0.3,1.4,0.3,2c0,0.4-0.3,0.6-0.5,0.6c-0.2,0-0.5-0.2-0.5-0.9
	c-0.1-0.7-0.1-1.2-0.2-1.5c0-0.1-0.1-0.2-0.3-0.2c-0.1,0-0.4,0-0.5,0c-0.1,0-0.2,0.1-0.1,0.2c0,0.1,0.1,1.1,0.1,1.7
	c0,0.5-0.1,0.6-0.3,0.6c-0.3,0-0.4-0.3-0.5-0.6c0-0.3-0.1-1.3-0.1-1.8c0-0.1-0.1-0.2-0.2-0.2c-0.1,0-0.2,0-0.6,0
	c-0.1,0-0.2,0.1-0.2,0.2c0.1,0.6,0,1.8,0,1.9c0,0.2-0.1,0.5-0.5,0.5c-0.2,0-0.3-0.2-0.4-0.5c0-0.1,0-1.3-0.1-1.9
	c0-0.2-0.1-0.2-0.3-0.2h-0.3c-0.2,0-0.2,0.1-0.3,0.3c-0.1,0.7,0,2.4-0.2,2.5c-0.2,0.1-1.2,0-2.2-0.1c-0.5-0.1-0.4-0.4-0.8-0.5
	c-0.3,0-0.5-0.1-0.5-0.3c0-0.2,0.2-1.3,0.5-2.1c0-0.5-0.2-0.5-0.6-1.3s-0.2-1,0.2-1s2.8-0.1,4.2,0.2s4.8,0.4,6.4,0.4
	C115.1,208.4,114.9,207.8,115.7,207.7 M117.2,204.1c0.3-0.2,0.6,0.6,0.2,0.7C116.8,204.8,116.9,204.3,117.2,204.1 M118.9,203.5
	c0.5,0.1,1.1,0.7,0.5,1.2c-0.2,0.1-0.5,0.2-0.6,0.1c-0.2-0.2-0.3-0.5-0.3-0.7C118.3,203.6,118.6,203.5,118.9,203.5 M120.2,205.6
	c0.6,0.1,0.8-0.3,1.3-0.3c0.7,0,0.9,0.8,0.2,1.2c-0.7,0.4-0.6,0.8-1.4,0.9c-0.6,0.1-1.2-0.1-1.5-0.6c-0.2-0.3,0-0.7,0.3-0.8
	C119.5,205.9,119.5,205.5,120.2,205.6 M125.3,207.2c1.2,0,1.9,1,2.1,1.7c0.1,0.3,0.2,0.5-0.2,0.7c-0.5,0.3-1.5,0.7-2.9,1.2
	c-0.4,0.1-0.5-0.2-0.5-0.4c0-0.3-0.1-0.7-0.3-1.1c-0.4-0.7-1-0.7-1.2-0.6c-0.4,0.1-0.9,0.2-2,0.5c-0.9,0-0.9-1.1,0.2-0.9
	c0.7,0.1,1.3-0.3,2-0.9C123.3,206.7,124.4,206.2,125.3,207.2 M129.7,211.1c0.4,0.4,0,0.9-0.5,1.2c-0.9,0.6-2.6,1.2-5.8,1.9
	c-3.9,0.8-8.9,1.2-14,1.2c-5.2,0-10.1-0.4-14-1.2c-0.4-0.1-0.8-0.2-1.1-0.2c0,0-0.1,0-0.1,0c-1.2-0.2-0.7-1.6,0.2-1.4
	c0.1,0,0.1,0,0.1,0c0.3,0.1,0.7,0.2,1.1,0.2c3.8,0.8,8.7,1.2,13.7,1.2s9.9-0.4,13.7-1.2c2.8-0.6,4.3-1.2,5.1-1.6
	C129,210.7,129.4,210.8,129.7,211.1 M92.6,209.6c-0.4,0.1-1.1,0.1-1.1-0.1c0,0,0.6-1.8,1.7-1.8c1.1,0,1.1,0.6,0.5,1.1
	S93,209.5,92.6,209.6 M91.5,213.1c-0.4-0.1-0.8-0.3-1.2-0.5c-0.5-0.2-0.8-0.7-0.4-1.1c0.3-0.3,0.9-0.3,1.4,0
	c0.2,0.1,0.4,0.1,0.6,0.2C92.9,212.2,92.4,213.4,91.5,213.1 M99.8,203.4c0.6-0.4,1.1-0.5,1.7-0.4c0.7,0.1,0.4,0.7,0.1,1.4
	c-0.3,0.6-0.4,1.1-1.2,0.9c-0.5-0.1-0.9-0.3-1.2-0.6C98.8,204.3,99.3,203.7,99.8,203.4 M102.2,211.6c-0.2,0.8-0.3,0.6-0.6,0.6
	c-0.7-0.1-0.4-0.6-0.3-1c0.2-0.6,0.5-0.7,0.7-0.7C102.5,210.5,102.4,210.7,102.2,211.6 M104.4,204.5c0.3-0.8,1.1-1.1,1.4-1.1
	s0.8,0,1,1.3c0.2,1.3-0.2,1.4-1.2,1.4c-0.5,0-0.8-0.1-1.3-0.1C103.9,205.9,104.2,205,104.4,204.5 M97.1,168.6
	c-2.8-1-6.3-3.6-4.7-4.4c0.3-0.2,0.6-0.1,1.2,0.8c0.6,0.8,2.7,2,4.5,2.6c3,1.1,7.2,1.9,12,1.9c3.1,0,6.4-0.2,9.7-0.8
	c0.8-0.1,2.4,0.4,0.5,0.8c-2.6,0.6-5.9,1-9.8,1c-0.3,0-1.7,0-2.6,0C102.2,170.4,99.5,169.5,97.1,168.6 M100.9,184.6
	c-1.5-0.5-2.4-0.9-3.4-1.4c-0.9-0.5-1.3-1.3-1.4-1.6c-0.3-0.6-0.2-1.3-0.7-1.8c-0.6-0.8-0.9-2-0.8-3.3c0.1-1.3-0.1-2.3,0.7-2.6
	c0.8-0.3,1-0.1,1.3-1.5c0.1-0.4,0.1-0.7,0.2-1c0-0.2,0.1-0.6,0.5-0.4c0.5,0.2,0.6,0.3,0.9,0.3c0.2,0.1,0.2,0.3,0.1,0.5
	c-0.1,0.1-0.3,0.3-0.3,0.4c-1.4,2.1-2.3,4.3-1.5,6.9c0.8,2.8,3.3,4.1,5,5C102.1,184.4,102.1,185,100.9,184.6 M92.3,189.1
	c0-2-0.9-1.9-0.8-2.5c0.1-0.8,2.1,0.6,2.1,2.9c0,0.5,0,1-0.1,1.4l0,0c-0.1,0.6-0.3,1.1-0.7,1.7c-0.6,0.8-1.5,1.6-2.3,1.4
	c-1.1-0.2-1.2-1.3-0.6-1.7c1-0.6,1.7,0.6,2.5-0.5c0.4-0.5,0.3-0.6,0.4-1C92.8,190.6,92.3,189.5,92.3,189.1 M85.4,188
	c0.7,0.5,1,2,0.7,3.1c-0.3,1.1-1.1,0.7-1.2-0.3s-1-1.4-1.1-2.2C83.7,187.7,84.6,187.5,85.4,188 M83.8,186.9
	c-0.3,0.9-1.4,0.9-1.3,1.6c0.1,1.1,1.7,1.4,1.5,2.8c-0.2,1.9,0.4,2.6,1.5,3c1,0.4,1.4-0.4,2.2-0.3c0.8,0.1,1.6,1,0.9,1.1
	c-0.7,0.1-0.9,0.1-1.3,0.1c-1.7,0-3.3-0.6-4.4-1.6c-1.1-0.9-1.7-2.1-1.7-3.4c0-1.4,0.6-2.7,1.5-3.5
	C83.5,185.9,83.9,186.5,83.8,186.9 M94.4,199.7l-18.1-4.9c0,0,2.5-4.9,6.3-13.8c3.5,1.1,5.4,2.7,5.9,3.8c-0.7-0.4-1.5-0.6-2-0.6
	c-4.1,0-6.6,2.7-6.6,6s3.2,6.1,7.3,6.1c1.6,0,3.1-0.4,4.3-1.1c0.7-0.4,1.5-1,2.1-1.9c0.4-0.6,0.8-1.4,0.9-2.1
	c0.1-0.5,0.2-1.1,0.2-1.7c-0.1-3.3-1.3-6.4-10.8-10.6c-0.1-0.1-0.2-0.1-0.4-0.2c0.5-1.2,1-2.5,1.6-3.9c2.8,4.5,7.1,7.3,10.8,8.9
	C94.6,193.9,94.4,199.7,94.4,199.7 M67.1,157.7c2.5-6.9,10.2-5.1,12.7-1.8c2.1,2.7,2.3,5.7,2.2,7.7c-0.2,3.5-1.5,6.6,0.5,8.8
	c-0.7,1.6-1.4,3.2-2.1,4.7C70.4,171.6,65.1,163.4,67.1,157.7 M84.8,172.2c0,0.2-0.2,0.4-0.4,0.4c-0.2,0-0.5-0.4-0.3-0.4
	c0.1,0,0.2-0.1,0.3-0.3C84.4,171.6,84.8,171.9,84.8,172.2 M75.2,176.7c-3.9-1.7-9.4-4.9-12.1-9.9c-1.7-3.2-1.8-7.5-0.8-10.8
	c1.2-4,6.1-7.4,11-7.4c3.8,0,7.6,1.8,9.7,4.6c1.7,2.2,2.4,5.3,2,10.1c-0.2,1.8-0.3,3.1,1,4.1c0.9,0.7,1.6,0.1,2.5,0.1
	c0.8,0,1-1.2,1.5-0.9c0.4,0.3,0.1,0.9-0.9,1.2c-0.2,0.1,0.1,0.8-0.3,1.4c-1.1,2-1.7,4.8-0.8,5.2c0.6,0.3,0.3-1.1,0.8-2.6
	c0.4-1,1.3-2.8,2.8-3.6c0.2-0.1,0.6-0.3,1.1,0.1c0.3,0.2,0.6,0.5,0.9,0.7c0.6,0.4,0.3,0.6,0.2,0.8c-0.2,0.2-0.3,0.3-0.5,0.5
	c-0.6,0.4-1.7,2.1-0.9,2.5c0.8,0.5,1.6,1.3,0.6,1.2c-0.5,0-1.5-0.1-1.5,1.6c0,2.1,1.4,3.6,2.2,4.7c0.4,0.5,0.9,0.9,0.6,1.1
	c-0.2,0.1-0.8-0.2-1.6-0.6c-1.4-0.9-3.1-2.1-4.6-3.6c-1.7-1.7-2.2-3.2-2.3-4c-0.6-2.7,0.8-4.5,0.3-4.8c-0.9-0.6-1,1.8-2.1,1.9
	c-1.8,0.3,0.1-5.2-0.2-8.7c-0.1-0.7-0.2-1.5-0.3-2.1c-0.1-0.5,0-1.4-0.2-1.9c-0.2-0.7-0.8-1-1.1-1.6c-0.2-0.4-0.5-0.9-0.8-1.3
	c-0.4-0.6-1.4-1-1.9-1.4c0,0,0,0-0.1-0.1c-0.8-0.6-0.2-1.2-0.4-1.8s-1.2-1-1.8-1.2c-0.5-0.2-1.2-0.5-1.3-0.1c-0.2,0.4,0.3,0.8,1.2,1
	c1.3,0.4,0.7,1.1-0.2,0.7c-1.3-0.6-2.3-0.7-3.7-0.7c-3.5,0-7,2.2-8,5.8c-1.1,3.7-0.1,8.3,3.2,12.5c1,1.3,1.3,1.7,1.9,2.4
	c0.9,1.1,1,2,1.5,2.4c0.4,0.3,1.5,0.3,2,0.6c1.4,1,3.4,2.2,3.4,2.3C77.1,177.4,76.9,177.4,75.2,176.7 M98.7,165.1
	c-0.3,0.4-0.5,0.7-0.9,0.6c-0.8-0.2-1.1-0.9,0.9-1.6C99,163.8,99.3,164.2,98.7,165.1 M101.1,126.6l3.4-12.6
	c-16.6-4.4-26.5-0.7-26.5-0.7l4.8-17.9c0,0,6.8,8.2,23.3,12.6c0.6-2.1,0.3-1.2,0.8-3c4.7-17.6,1.3-28.9,1.3-28.9l17.9,4.8
	c0,0-8.5,8.1-13.2,25.7c-0.5,1.8-0.2,0.9-0.8,3c16.3,4.4,26.4,0.7,26.4,0.7l-4.8,17.9c0,0-6.6-8.2-23.2-12.6l-3.4,12.6
	c-3.3,12.4-5.8,23.6-7.6,33.2c-1,0.1-2.1,0.2-2.1,1.5c-1.4-0.1-2.4,0.1-2.9,0.8c-1.9-1.7-4.2-0.3-3.8,1.9c-0.9,0.6-1.7,0.8-2.3,0.8
	C92.4,155.7,96.9,142.3,101.1,126.6 M106,164.1c0.4,0,0.7,0.4,0.7,2c0,1.2-0.7,1.8-1.5,1.8C102.5,167.9,105,164.1,106,164.1
	 M107.2,159.4c0.4-0.4,0.6-0.1,0.6,0.1c-0.1,0.6,0.1,1.1-0.5,1C106.8,160.5,106.9,159.7,107.2,159.4 M108.3,166
	c0.1-1.6,0.5-2.2,1-2.2c1,0,1.6,4.4,0,4.4C108.4,168.2,108.2,167.3,108.3,166 M110.2,158.4c0.2-0.1,0.4,0.2,0.5,0.5
	c0.1,0.4,0,0.6-0.2,0.6s-0.3-0.1-0.3-0.3C110.2,158.9,110.1,158.5,110.2,158.4 M112.3,159.3c0.4,0.4,0.6,1.3,0.1,1.4
	c-0.6,0.1-0.3-0.5-0.5-1.2C111.8,159.2,111.9,158.9,112.3,159.3 M113.4,168c-0.8,0-1.1-0.8-1.3-2c-0.3-1.6-0.2-2,0.3-2
	C113.4,164.1,116.2,168,113.4,168 M113.8,159.2c0.5,0.4,0.7,1.5,0.2,1.6c-0.7,0.1-0.4-0.5-0.7-1.4
	C113.3,159.1,113.4,158.8,113.8,159.2 M117.3,163.5c0.6-0.2,2.1,0.4,3.1,1.4c1,1,1.9,1.9,0.6,2.2c-1.3,0.4-1.8-0.4-2.4-1.3
	C117.5,164.1,116.5,163.8,117.3,163.5 M121,163.8c0.5-0.4,2.9,0.1,4.3,0.8c1.3,0.7,1.4,1,0.8,1.4c-0.6,0.4-1.1-0.3-1.8-0.3
	c-1.1,0-1.2,0.6-2-0.4C121.3,164.3,120.5,164.1,121,163.8 M127.9,166.5c0.5,0.4-0.2,0.7-0.9,1c-0.6,0.2-1.2,0.5-2.8,0.9
	c-0.7,0.2-1.4-0.5-0.7-0.6s2.6-0.9,3.2-1.2C127.2,166.3,127.5,166.3,127.9,166.5 M163.9,163.5c-1.3,0-2.7,0.1-4.7,0.1
	c-0.3,0-0.7,0-1.1,0c0-0.9-0.6-1.8-1.3-2.2c0,0,0,0,0,0c-0.7-0.4-1.2-0.4-1.1-1.1c0.1-0.5,0.1-0.8,0.2-1.2c0.9-4.1,3.5-7.1,4.2-11.5
	c1.1-6.8-3.6-13.3-3.6-13.3s-0.4,3-1.8,6.2c-1.3,3.2-3.4,5.8-3.4,10c0,2.7,1,4.7,1.8,6.5c0.4,1,1.9,3.4,0.6,4.7c0,0,0,0,0,0
	c-0.6,0.5-0.9,1.3-1,2.1c-4.3,0.2-9.4,0.6-13.9,1.2c-2.6,0.3-8.4,1.6-9.2,1.5c-1-0.2-2.6-1.7-3.6-2.3c-1.5-0.9-5.2-1.2-5.2-1.2
	c0-2.3-3.9-0.8-3.9-2.2c0-1.4-3-3-4.5-3.8c-1.4-0.7-1.1-2.1-1.1-2.4c0,0,0,0,0,0c0.1-0.3,0.2-0.6,0.2-0.9c0-1.4-1.1-2.4-2.4-2.4
	c-1.3,0-2.4,1.1-2.4,2.4c0,0.3,0.1,0.6,0.2,0.9c0,0,0,0,0,0c0.1,0.2,0.4,1.7-1,2.4c-1.5,0.8-4.5,2.4-4.5,3.8c0,0.4-0.4,0.6-0.9,0.6
	c1.8-9.4,4.2-20.6,7.5-32.9l2.6-9.8l0.7,0.2c14.3,3.8,18.8,12.3,18.9,12.4c0.1,0.2,0.4,0.4,0.6,0.5c0.3,0,0.6,0,0.8-0.2l2.7-2.5
	c0.1-0.1,0.2-0.3,0.2-0.4l4.8-17.9c0.1-0.3,0-0.7-0.2-0.9c-0.2-0.2-0.6-0.3-0.9-0.2c0,0-3.9,1.4-10.6,1.4c-4.6,0-9.5-0.6-14.4-1.9
	l0.6-2.2c2.4-9,5.8-15.4,8.2-19.2c2.6-4.1,4.7-6.1,4.8-6.1c0.2-0.2,0.3-0.6,0.2-0.9s-0.3-0.6-0.6-0.6l-17.9-4.8c-0.2,0-0.3,0-0.5,0
	l-3.6,1.1c-0.2,0.1-0.4,0.2-0.5,0.5s-0.1,0.5,0,0.7c0,0.1,4.4,11.5-0.2,28.7l-0.1,0.2c-14-4.4-20-11.4-20.1-11.5
	c-0.3-0.3-0.8-0.4-1.1-0.2l-2.4,1.4c-0.2,0.1-0.3,0.3-0.4,0.5l-5.4,20.2c-0.1,0.3,0,0.7,0.3,0.9c0.3,0.2,0.7,0.2,1,0.1
	c1.9-1.1,7.4-3.1,14.7-3.1c3.6,0,7.2,0.5,10.9,1.4l-3.2,12.1c-3.6,13.4-7.6,25.1-11.4,35c0.2-4.2-0.2-7.9-2.2-10.6
	c-2.8-3.7-8-5.7-12.7-4.9c-4.4,0.7-9.3,3.8-10.9,8.3c-3.3,9.2,1.3,18.5,18.8,24.1c-4.8,10.5-8.3,16.3-8.3,16.4
	c-0.2,0.2-0.2,0.5-0.1,0.8c0.1,0.3,0.3,0.4,0.6,0.5l18.9,5.1c0.1,0,0.2,0,0.2,0c0.2,0,0.3,0,0.4-0.1l3.9-2.2
	c0.3-0.1,0.4-0.4,0.4-0.7c0-0.1,0.3-5.7,1.5-15.6c3.7,1.5,6.6,2,6.6,2c0.3,2.3,2.5,3.4,2.5,3.4c-0.2,2.1-0.3,2.9-0.4,4.2
	c-1.8,0.7-3.1,2.3-0.4,3.8c-0.2,2.1-1.1,3.6-1.1,3.6s-4.5,0.2-5.8,2.6c-2.5,0-4.7,1.9-5.1,2.8c-2,0-2.8,2.7-2.8,2.7
	c-2,0.8-3.1,1.5-3.1,2.5c0,2.9,9.9,5.3,22.1,5.3c12.2,0,22.1-2.4,22.1-5.3c0-1-1.1-1.7-3.1-2.5c0,0-0.8-2.7-2.8-2.7
	c-0.4-1-2.6-2.8-5.1-2.8c-1.3-2.3-5.8-2.6-5.8-2.6s-0.9-1.5-1.1-3.6c3.2-1.7,0.3-3.4-0.4-3.7c-0.1-1-0.3-3.1-0.4-4.2
	c2.6-1.2,2.3-3.5,2.3-3.5s7.5-0.5,17.3-9.1c5.2-4.6,10.2-7.8,14.5-9.5c9.2-3.6,15.7-1.8,16.3-1.8c0.8,0.1,1.7-0.4,1.8-0.9
	C165.1,164.1,164.8,163.5,163.9,163.5"/>
</svg>
